<?xml version="1.0" encoding="UTF-8"?>
<svg id="Layer_2" data-name="Layer 2" xmlns="http://www.w3.org/2000/svg" width="41.12" height="22.39" viewBox="0 0 41.12 22.39">
  <defs>
    <style>
      .cls-1 {
        fill: #0d2e9e;
      }

      .cls-2 {
        fill: #ef7159;
      }

      .cls-3 {
        fill: #f26441;
      }

      .cls-4 {
        fill: #6d91f7;
      }

      .cls-5 {
        fill: #9d3300;
      }
    </style>
  </defs>
  <g id="Layer_1-2" data-name="Layer 1">
    <g>
      <g>
        <path class="cls-3" d="M5.84,21.89c-2.95,0-5.34-2.4-5.34-5.34s2.4-5.34,5.34-5.34,5.34,2.4,5.34,5.34-2.4,5.34-5.34,5.34Z"/>
        <path class="cls-5" d="M5.84,11.7c2.67,0,4.84,2.17,4.84,4.84s-2.17,4.84-4.84,4.84-4.84-2.17-4.84-4.84,2.17-4.84,4.84-4.84M5.84,10.7c-3.23,0-5.84,2.62-5.84,5.84s2.62,5.84,5.84,5.84,5.84-2.62,5.84-5.84-2.62-5.84-5.84-5.84h0Z"/>
      </g>
      <g>
        <path class="cls-3" d="M5.84,11.19C2.9,11.19.5,8.79.5,5.84S2.9.5,5.84.5s5.34,2.4,5.34,5.34-2.4,5.34-5.34,5.34Z"/>
        <path class="cls-5" d="M5.84,1c2.67,0,4.84,2.17,4.84,4.84s-2.17,4.84-4.84,4.84S1,8.52,1,5.84,3.17,1,5.84,1M5.84,0C2.62,0,0,2.62,0,5.84s2.62,5.84,5.84,5.84,5.84-2.62,5.84-5.84S9.07,0,5.84,0h0Z"/>
      </g>
      <g>
        <path class="cls-2" d="M35.28,21.89c-2.95,0-5.34-2.4-5.34-5.34s2.4-5.34,5.34-5.34,5.34,2.4,5.34,5.34-2.4,5.34-5.34,5.34Z"/>
        <path class="cls-5" d="M35.28,11.7c2.67,0,4.84,2.17,4.84,4.84s-2.17,4.84-4.84,4.84-4.84-2.17-4.84-4.84,2.17-4.84,4.84-4.84M35.28,10.7c-3.23,0-5.84,2.62-5.84,5.84s2.62,5.84,5.84,5.84,5.84-2.62,5.84-5.84-2.62-5.84-5.84-5.84h0Z"/>
      </g>
      <g>
        <path class="cls-2" d="M35.28,11.19c-2.95,0-5.34-2.4-5.34-5.34s2.4-5.34,5.34-5.34,5.34,2.4,5.34,5.34-2.4,5.34-5.34,5.34Z"/>
        <path class="cls-5" d="M35.28,1c2.67,0,4.84,2.17,4.84,4.84s-2.17,4.84-4.84,4.84-4.84-2.17-4.84-4.84,2.17-4.84,4.84-4.84M35.28,0c-3.23,0-5.84,2.62-5.84,5.84s2.62,5.84,5.84,5.84,5.84-2.62,5.84-5.84-2.62-5.84-5.84-5.84h0Z"/>
      </g>
      <g>
        <path class="cls-4" d="M14.83,16.54c-2.95,0-5.34-2.4-5.34-5.34s2.4-5.34,5.34-5.34,5.34,2.4,5.34,5.34-2.4,5.34-5.34,5.34Z"/>
        <path class="cls-1" d="M14.83,6.35c2.67,0,4.84,2.17,4.84,4.84s-2.17,4.84-4.84,4.84-4.84-2.17-4.84-4.84,2.17-4.84,4.84-4.84M14.83,5.35c-3.23,0-5.84,2.62-5.84,5.84s2.62,5.84,5.84,5.84,5.84-2.62,5.84-5.84-2.62-5.84-5.84-5.84h0Z"/>
      </g>
      <g>
        <path class="cls-4" d="M25.91,16.54c-2.95,0-5.34-2.4-5.34-5.34s2.4-5.34,5.34-5.34,5.34,2.4,5.34,5.34-2.4,5.34-5.34,5.34Z"/>
        <path class="cls-1" d="M25.91,6.35c2.67,0,4.84,2.17,4.84,4.84s-2.17,4.84-4.84,4.84-4.84-2.17-4.84-4.84,2.17-4.84,4.84-4.84M25.91,5.35c-3.23,0-5.84,2.62-5.84,5.84s2.62,5.84,5.84,5.84,5.84-2.62,5.84-5.84-2.62-5.84-5.84-5.84h0Z"/>
      </g>
    </g>
  </g>
</svg>