<?xml version="1.0" encoding="UTF-8"?>
<svg id="Layer_2" data-name="Layer 2" xmlns="http://www.w3.org/2000/svg" width="21.06" height="22.39" viewBox="0 0 21.06 22.39">
  <defs>
    <style>
      .cls-1 {
        fill: #0d2e9e;
      }

      .cls-2 {
        fill: #ef7159;
      }

      .cls-3 {
        fill: #6d91f7;
      }

      .cls-4 {
        fill: #9d3300;
      }
    </style>
  </defs>
  <g id="Layer_1-2" data-name="Layer 1">
    <g>
      <g>
        <circle class="cls-2" cx="15.21" cy="16.54" r="5.34"/>
        <path class="cls-4" d="M15.21,11.7c2.67,0,4.84,2.17,4.84,4.84s-2.17,4.84-4.84,4.84-4.84-2.17-4.84-4.84,2.17-4.84,4.84-4.84M15.21,10.7c-3.23,0-5.84,2.62-5.84,5.84s2.62,5.84,5.84,5.84,5.84-2.62,5.84-5.84-2.62-5.84-5.84-5.84h0Z"/>
      </g>
      <g>
        <path class="cls-2" d="M15.21,11.19c-2.95,0-5.34-2.4-5.34-5.34S12.27.5,15.21.5s5.34,2.4,5.34,5.34-2.4,5.34-5.34,5.34Z"/>
        <path class="cls-4" d="M15.21,1c2.67,0,4.84,2.17,4.84,4.84s-2.17,4.84-4.84,4.84-4.84-2.17-4.84-4.84S12.54,1,15.21,1M15.21,0c-3.23,0-5.84,2.62-5.84,5.84s2.62,5.84,5.84,5.84,5.84-2.62,5.84-5.84S18.44,0,15.21,0h0Z"/>
      </g>
      <g>
        <path class="cls-3" d="M5.84,16.54c-2.95,0-5.34-2.4-5.34-5.34s2.4-5.34,5.34-5.34,5.34,2.4,5.34,5.34-2.4,5.34-5.34,5.34Z"/>
        <path class="cls-1" d="M5.84,6.35c2.67,0,4.84,2.17,4.84,4.84s-2.17,4.84-4.84,4.84S1,13.87,1,11.19s2.17-4.84,4.84-4.84M5.84,5.35C2.62,5.35,0,7.97,0,11.19s2.62,5.84,5.84,5.84,5.84-2.62,5.84-5.84-2.62-5.84-5.84-5.84h0Z"/>
      </g>
    </g>
  </g>
</svg>